<svg id="visual" viewBox="0 0 1920 1080" width="1920" height="1080" xmlns="http://www.w3.org/2000/svg" xmlns:xlink="http://www.w3.org/1999/xlink" version="1.1"><path d="M0 347L29.2 347C58.3 347 116.7 347 174.8 339.7C233 332.3 291 317.7 349.2 319.3C407.3 321 465.7 339 523.8 337.3C582 335.7 640 314.3 698.2 296.3C756.3 278.3 814.7 263.7 872.8 242C931 220.3 989 191.7 1047.2 229.5C1105.3 267.3 1163.7 371.7 1221.8 382.5C1280 393.3 1338 310.7 1396.2 314.3C1454.3 318 1512.7 408 1570.8 404.3C1629 400.7 1687 303.3 1745.2 314.2C1803.3 325 1861.7 444 1890.8 503.5L1920 563L1920 0L1890.8 0C1861.7 0 1803.3 0 1745.2 0C1687 0 1629 0 1570.8 0C1512.7 0 1454.3 0 1396.2 0C1338 0 1280 0 1221.8 0C1163.7 0 1105.3 0 1047.2 0C989 0 931 0 872.8 0C814.7 0 756.3 0 698.2 0C640 0 582 0 523.8 0C465.7 0 407.3 0 349.2 0C291 0 233 0 174.8 0C116.7 0 58.3 0 29.2 0L0 0Z" fill="#570e6a"></path><path d="M0 638L29.2 629C58.3 620 116.7 602 174.8 587.7C233 573.3 291 562.7 349.2 557.3C407.3 552 465.7 552 523.8 568.2C582 584.3 640 616.7 698.2 618.5C756.3 620.3 814.7 591.7 872.8 573.7C931 555.7 989 548.3 1047.2 562.7C1105.3 577 1163.7 613 1221.8 649C1280 685 1338 721 1396.2 724.7C1454.3 728.3 1512.7 699.7 1570.8 654.7C1629 609.7 1687 548.3 1745.2 575.3C1803.3 602.3 1861.7 717.7 1890.8 775.3L1920 833L1920 561L1890.8 501.5C1861.7 442 1803.3 323 1745.2 312.2C1687 301.3 1629 398.7 1570.8 402.3C1512.7 406 1454.3 316 1396.2 312.3C1338 308.7 1280 391.3 1221.8 380.5C1163.7 369.7 1105.3 265.3 1047.2 227.5C989 189.7 931 218.3 872.8 240C814.7 261.7 756.3 276.3 698.2 294.3C640 312.3 582 333.7 523.8 335.3C465.7 337 407.3 319 349.2 317.3C291 315.7 233 330.3 174.8 337.7C116.7 345 58.3 345 29.2 345L0 345Z" fill="#821d99"></path><path d="M0 735L29.2 760.3C58.3 785.7 116.7 836.3 174.8 831C233 825.7 291 764.3 349.2 737.3C407.3 710.3 465.7 717.7 523.8 733.8C582 750 640 775 698.2 789.3C756.3 803.7 814.7 807.3 872.8 805.5C931 803.7 989 796.3 1047.2 789.2C1105.3 782 1163.7 775 1221.8 789.5C1280 804 1338 840 1396.2 847.2C1454.3 854.3 1512.7 832.7 1570.8 812.8C1629 793 1687 775 1745.2 796.7C1803.3 818.3 1861.7 879.7 1890.8 910.3L1920 941L1920 831L1890.8 773.3C1861.7 715.7 1803.3 600.3 1745.2 573.3C1687 546.3 1629 607.7 1570.8 652.7C1512.7 697.7 1454.3 726.3 1396.2 722.7C1338 719 1280 683 1221.8 647C1163.7 611 1105.3 575 1047.2 560.7C989 546.3 931 553.7 872.8 571.7C814.7 589.7 756.3 618.3 698.2 616.5C640 614.7 582 582.3 523.8 566.2C465.7 550 407.3 550 349.2 555.3C291 560.7 233 571.3 174.8 585.7C116.7 600 58.3 618 29.2 627L0 636Z" fill="#9c3fb1"></path><path d="M0 930L29.2 944.3C58.3 958.7 116.7 987.3 174.8 985.5C233 983.7 291 951.3 349.2 940.5C407.3 929.7 465.7 940.3 523.8 945.7C582 951 640 951 698.2 945.7C756.3 940.3 814.7 929.7 872.8 938.7C931 947.7 989 976.3 1047.2 987.2C1105.3 998 1163.7 991 1221.8 982C1280 973 1338 962 1396.2 958.3C1454.3 954.7 1512.7 958.3 1570.8 962C1629 965.7 1687 969.3 1745.2 978.3C1803.3 987.3 1861.7 1001.7 1890.8 1008.8L1920 1016L1920 939L1890.8 908.3C1861.7 877.7 1803.3 816.3 1745.2 794.7C1687 773 1629 791 1570.8 810.8C1512.7 830.7 1454.3 852.3 1396.2 845.2C1338 838 1280 802 1221.8 787.5C1163.7 773 1105.3 780 1047.2 787.2C989 794.3 931 801.7 872.8 803.5C814.7 805.3 756.3 801.7 698.2 787.3C640 773 582 748 523.8 731.8C465.7 715.7 407.3 708.3 349.2 735.3C291 762.3 233 823.7 174.8 829C116.7 834.3 58.3 783.7 29.2 758.3L0 733Z" fill="#821d99"></path><path d="M0 1081L29.2 1081C58.3 1081 116.7 1081 174.8 1081C233 1081 291 1081 349.2 1081C407.3 1081 465.7 1081 523.8 1081C582 1081 640 1081 698.2 1081C756.3 1081 814.7 1081 872.8 1081C931 1081 989 1081 1047.2 1081C1105.3 1081 1163.7 1081 1221.8 1081C1280 1081 1338 1081 1396.2 1081C1454.3 1081 1512.7 1081 1570.8 1081C1629 1081 1687 1081 1745.2 1081C1803.3 1081 1861.7 1081 1890.8 1081L1920 1081L1920 1014L1890.8 1006.8C1861.7 999.7 1803.3 985.3 1745.2 976.3C1687 967.3 1629 963.7 1570.8 960C1512.7 956.3 1454.3 952.7 1396.2 956.3C1338 960 1280 971 1221.8 980C1163.7 989 1105.3 996 1047.2 985.2C989 974.3 931 945.7 872.8 936.7C814.7 927.7 756.3 938.3 698.2 943.7C640 949 582 949 523.8 943.7C465.7 938.3 407.3 927.7 349.2 938.5C291 949.3 233 981.7 174.8 983.5C116.7 985.3 58.3 956.7 29.2 942.3L0 928Z" fill="#570e6a"></path></svg>