<svg id="visual" viewBox="0 0 960 540" width="960" height="540" xmlns="http://www.w3.org/2000/svg" xmlns:xlink="http://www.w3.org/1999/xlink" version="1.1"><path d="M0 50L87 50L87 55L175 55L175 98L262 98L262 93L349 93L349 114L436 114L436 55L524 55L524 66L611 66L611 104L698 104L698 114L785 114L785 60L873 60L873 77L960 77L960 71L960 0L960 0L873 0L873 0L785 0L785 0L698 0L698 0L611 0L611 0L524 0L524 0L436 0L436 0L349 0L349 0L262 0L262 0L175 0L175 0L87 0L87 0L0 0Z" fill="#fa7268"></path><path d="M0 125L87 125L87 98L175 98L175 190L262 190L262 168L349 168L349 158L436 158L436 141L524 141L524 114L611 114L611 195L698 195L698 163L785 163L785 152L873 152L873 114L960 114L960 147L960 69L960 75L873 75L873 58L785 58L785 112L698 112L698 102L611 102L611 64L524 64L524 53L436 53L436 112L349 112L349 91L262 91L262 96L175 96L175 53L87 53L87 48L0 48Z" fill="#ea5e66"></path><path d="M0 276L87 276L87 276L175 276L175 266L262 266L262 368L349 368L349 390L436 390L436 222L524 222L524 239L611 239L611 314L698 314L698 374L785 374L785 260L873 260L873 206L960 206L960 271L960 145L960 112L873 112L873 150L785 150L785 161L698 161L698 193L611 193L611 112L524 112L524 139L436 139L436 156L349 156L349 166L262 166L262 188L175 188L175 96L87 96L87 123L0 123Z" fill="#d84a64"></path><path d="M0 352L87 352L87 341L175 341L175 368L262 368L262 471L349 471L349 460L436 460L436 352L524 352L524 320L611 320L611 433L698 433L698 476L785 476L785 341L873 341L873 320L960 320L960 325L960 269L960 204L873 204L873 258L785 258L785 372L698 372L698 312L611 312L611 237L524 237L524 220L436 220L436 388L349 388L349 366L262 366L262 264L175 264L175 274L87 274L87 274L0 274Z" fill="#c53762"></path><path d="M0 541L87 541L87 541L175 541L175 541L262 541L262 541L349 541L349 541L436 541L436 541L524 541L524 541L611 541L611 541L698 541L698 541L785 541L785 541L873 541L873 541L960 541L960 541L960 323L960 318L873 318L873 339L785 339L785 474L698 474L698 431L611 431L611 318L524 318L524 350L436 350L436 458L349 458L349 469L262 469L262 366L175 366L175 339L87 339L87 350L0 350Z" fill="#b0235f"></path></svg>