<!DOCTYPE svg PUBLIC "-//W3C//DTD SVG 1.1//EN" "http://www.w3.org/Graphics/SVG/1.1/DTD/svg11.dtd">
<!-- Uploaded to: SVG Repo, www.svgrepo.com, Transformed by: SVG Repo Mixer Tools -->
<svg fill="#000000" width="32px" height="32px" viewBox="0 0 24 24" id="send" xmlns="http://www.w3.org/2000/svg" class="icon multi-color">

<g id="SVGRepo_bgCarrier" stroke-width="0"/>

<g id="SVGRepo_tracerCarrier" stroke-linecap="round" stroke-linejoin="round"/>

<g id="SVGRepo_iconCarrier">

<title style="stroke-width: 2;">send</title>

<path id="secondary-fill" d="M18.5,13.66,5.44,19.85A1,1,0,0,1,4.1,18.54l2.72-6.13a1.06,1.06,0,0,0,0-.82L4.71,6.84l13,6.16A1.93,1.93,0,0,1,18.5,13.66Z" style="fill: #bd037f; stroke-width: 2;"/>

<path id="primary-stroke" d="M20.09,12.9l-1.59.76L5.44,19.85A1,1,0,0,1,4.1,18.54l2.72-6.13a1.06,1.06,0,0,0,0-.82L4.71,6.84,4.1,5.46A1,1,0,0,1,5.44,4.15l14.65,7A1,1,0,0,1,20.09,12.9ZM7,12h4" style="fill: none; stroke: #000000; stroke-linecap: round; stroke-linejoin: round; stroke-width: 2;"/>

</g>

</svg>